<svg width="83" height="90" viewBox="0 0 83 90" fill="none" xmlns="http://www.w3.org/2000/svg">
<path fill-rule="evenodd" clip-rule="evenodd" d="M30.1186 60.3066C30.0404 60.8599 30 61.4252 30 62C30 68.6274 35.3726 74 42 74C48.6274 74 54 68.6274 54 62C54 61.4252 53.9596 60.8599 53.8815 60.3066H83V87C83 88.6569 81.6569 90 80 90H4C2.34315 90 1 88.6569 1 87V60.3066H30.1186Z" fill="white"/>
<path fill-rule="evenodd" clip-rule="evenodd" d="M55 60C55 67.1797 49.1797 73 42 73C34.8203 73 29 67.1797 29 60C29 59.7674 29.0061 59.5362 29.0182 59.3066H1L10.5604 31.0389C10.9726 29.8202 12.1159 29 13.4023 29H70.5977C71.8842 29 73.0274 29.8202 73.4396 31.0389L83 59.3066H54.9818C54.9939 59.5362 55 59.7674 55 60Z" fill="white"/>
<path fill-rule="evenodd" clip-rule="evenodd" d="M53.0976 60.9545C53.0976 66.5025 48.129 72 42 72C35.871 72 30.9024 66.5025 30.9024 60.9545C30.9024 60.7748 30.9077 59.5962 30.918 59.4188H10L18.1614 39.5755C18.5132 38.6338 19.4891 38 20.5873 38H63.4127C64.5109 38 65.4868 38.6338 65.8387 39.5755L74 59.4188H53.082C53.0923 59.5962 53.0976 60.7748 53.0976 60.9545Z" fill="#F9F5FA"/>
<path fill-rule="evenodd" clip-rule="evenodd" d="M2 59.5123V86C2 86.9665 2.7835 87.75 3.75 87.75H79.75C80.7165 87.75 81.5 86.9665 81.5 86V59.5123L72.0054 31.4393C71.765 30.7285 71.0981 30.25 70.3477 30.25H13.1523C12.4019 30.25 11.735 30.7285 11.4946 31.4393L2 59.5123Z" stroke="#80519F" stroke-width="2.5"/>
<path d="M12.4263 59C16.3628 59 20.6111 59 25.1712 59C27.0475 59 27.0475 60.3186 27.0475 61C27.0475 67.6274 32.5437 73 39.3235 73C46.1034 73 51.5996 67.6274 51.5996 61C51.5996 60.3186 51.5996 59 53.4759 59H78.4263M5 59H7.42627H5Z" stroke="#80519F" stroke-width="2.5" stroke-linecap="round" stroke-linejoin="round"/>
<path d="M68.0996 6.30273L57 18.7559M42.0996 2V18.7559V2ZM16 6.30273L27.0996 18.7559L16 6.30273Z" stroke="#CCADD9" stroke-width="2.5" stroke-linecap="round" stroke-linejoin="round"/>
</svg>
